<?xml version="1.0" standalone="no"?>
<!DOCTYPE svg PUBLIC "-//W3C//DTD SVG 20010904//EN"
 "http://www.w3.org/TR/2001/REC-SVG-20010904/DTD/svg10.dtd">
<svg version="1.0" xmlns="http://www.w3.org/2000/svg"
 width="1254.000000pt" height="1254.000000pt" viewBox="0 0 1254.000000 1254.000000"
 preserveAspectRatio="xMidYMid meet">

<g transform="translate(0.000000,1254.000000) scale(0.100000,-0.100000)"
fill="#000000" stroke="none">
<path d="M5955 11619 c-462 -33 -836 -165 -1053 -373 -79 -75 -120 -130 -165
-221 -66 -134 -78 -187 -227 -1050 -28 -159 -53 -299 -56 -310 -3 -14 -45 -40
-136 -85 -658 -324 -1260 -848 -1655 -1440 -178 -268 -332 -556 -444 -830
l-67 -165 -718 -5 c-610 -5 -727 -8 -769 -21 -219 -68 -384 -224 -462 -437
l-28 -77 -3 -1367 c-3 -1510 -5 -1438 61 -1580 84 -181 230 -311 422 -376 l80
-27 937 -3 937 -3 90 -128 c678 -963 1701 -1608 2856 -1801 283 -47 378 -55
705 -54 230 0 342 4 455 18 764 91 1438 349 2045 782 212 151 332 255 540 463
198 199 346 376 491 588 l90 132 942 4 c1049 3 983 -1 1132 73 181 90 312 248
377 454 l23 75 0 1350 0 1350 -23 75 c-71 227 -236 399 -457 477 l-80 28 -718
3 -718 3 -9 22 c-5 12 -32 81 -60 152 -130 329 -346 714 -564 1000 -348 458
-732 802 -1226 1100 -80 48 -144 92 -143 98 1 7 32 147 69 312 66 293 68 303
68 445 1 163 -14 231 -81 364 -178 354 -500 610 -983 782 -467 166 -987 237
-1475 203z m686 -443 c516 -77 946 -253 1199 -493 123 -115 199 -252 221 -394
13 -87 13 -86 -90 -580 -39 -185 -73 -361 -77 -391 l-6 -55 125 -60 c383 -186
690 -406 1013 -728 217 -216 360 -386 499 -595 212 -320 354 -610 481 -980
l53 -155 818 -5 818 -5 55 -27 c80 -40 122 -79 161 -150 l34 -63 3 -1269 c2
-1164 1 -1274 -14 -1320 -34 -101 -94 -168 -194 -215 l-55 -26 -1016 -3 -1017
-2 -83 -133 c-267 -425 -548 -739 -924 -1032 -564 -439 -1271 -718 -2025 -797
-175 -18 -595 -15 -775 6 -766 89 -1460 375 -2045 842 -155 124 -448 413 -565
557 -112 138 -239 318 -315 446 l-65 110 -1020 3 -1020 3 -47 22 c-72 33 -143
105 -170 172 l-23 56 0 1290 0 1290 26 55 c37 80 72 115 147 152 l67 33 817 5
818 5 49 140 c86 245 142 378 252 595 332 656 820 1180 1462 1569 124 75 404
218 522 266 39 16 73 31 78 35 4 3 41 199 82 436 177 1007 169 971 233 1069
118 183 395 302 806 345 152 16 523 4 707 -24z"/>
<path d="M6045 10884 c-158 -18 -261 -45 -371 -98 -175 -84 -264 -197 -315
-400 l-22 -89 26 -23 c15 -13 34 -27 43 -32 25 -14 8 -61 -25 -68 -68 -15 -73
-20 -85 -83 -5 -30 -2 -38 34 -71 34 -32 38 -40 32 -65 -7 -23 -17 -31 -55
-42 -48 -14 -47 -13 -62 -86 -2 -11 10 -27 33 -45 48 -35 51 -40 43 -70 -6
-21 -17 -29 -50 -37 -79 -19 -98 -91 -36 -142 31 -25 34 -31 27 -62 -6 -29
-14 -37 -50 -49 -32 -10 -43 -20 -48 -40 -3 -15 -8 -35 -10 -44 -4 -12 8 -26
36 -44 38 -25 40 -29 34 -63 -8 -39 -18 -51 -50 -51 -34 0 -55 -23 -61 -67 -5
-40 -4 -43 31 -64 36 -21 41 -34 30 -76 -4 -15 -18 -24 -49 -32 -44 -11 -55
-26 -55 -83 0 -19 9 -32 35 -48 35 -22 41 -40 29 -87 -5 -18 -14 -23 -38 -23
-43 0 -62 -17 -70 -62 -6 -33 -4 -39 24 -59 21 -16 30 -31 30 -52 0 -38 -17
-67 -38 -67 -10 0 -27 -7 -39 -15 -17 -12 -23 -32 -33 -128 -17 -147 -10 -236
23 -310 86 -191 299 -354 615 -468 l94 -34 -6 -40 c-3 -22 -10 -96 -17 -165
-8 -94 -15 -130 -29 -145 -63 -70 -88 -208 -55 -307 9 -29 32 -75 50 -103 18
-27 36 -65 39 -82 l6 -33 -1230 0 c-677 0 -1230 2 -1230 5 0 3 18 56 41 118
66 181 215 474 331 647 150 225 239 333 437 530 184 183 323 297 503 414 l106
69 31 160 c17 88 29 162 26 165 -16 16 -411 -235 -569 -362 -120 -96 -395
-367 -493 -486 -277 -337 -490 -717 -623 -1110 -37 -111 -110 -375 -110 -400
0 -7 1229 -10 3365 -10 2685 0 3365 3 3365 13 0 57 -90 360 -157 532 -181 461
-439 853 -797 1211 -249 248 -548 469 -824 608 -72 36 -72 36 -77 14 -7 -30
-43 -243 -42 -244 1 -1 47 -28 102 -59 559 -321 1036 -837 1321 -1430 68 -143
154 -351 154 -374 0 -8 -402 -11 -1380 -11 l-1380 0 0 24 c0 29 78 252 189
544 44 116 81 218 81 226 0 20 17 30 85 50 171 51 286 164 344 338 17 51 31
100 31 109 0 8 -11 26 -25 39 -43 40 -29 107 26 125 27 9 36 19 43 48 9 34 7
40 -22 70 -27 27 -31 39 -26 63 5 24 14 33 47 45 38 13 42 18 50 58 9 46 6 53
-42 80 -10 6 -12 18 -7 44 6 31 11 37 41 43 40 7 50 18 58 61 5 27 1 39 -24
68 -27 30 -30 40 -25 70 6 28 11 35 30 35 33 0 63 29 70 68 5 29 1 38 -29 65
-30 29 -33 36 -27 67 7 29 13 35 42 41 67 14 84 89 29 132 -27 21 -30 29 -25
54 6 24 15 32 46 42 33 10 41 17 50 49 14 54 13 61 -19 97 -37 42 -33 81 10
90 60 13 80 92 34 135 -40 37 -31 79 20 106 l40 20 8 80 c15 147 -4 270 -58
391 -66 145 -157 245 -326 360 -279 189 -530 277 -894 312 -189 19 -217 19
-340 5z m15 -42 c-61 -40 -100 -96 -140 -198 -22 -56 -40 -111 -40 -122 0 -29
33 -54 63 -47 35 9 50 30 77 105 43 122 90 200 137 230 44 28 106 46 123 35 5
-3 -9 -22 -32 -43 -51 -46 -83 -96 -114 -179 -42 -112 -32 -163 30 -163 43 0
68 29 100 112 45 122 99 195 159 217 49 19 60 15 41 -14 -8 -13 -13 -28 -10
-33 3 -6 -10 -35 -28 -67 -37 -60 -76 -164 -76 -201 0 -12 9 -33 21 -48 22
-28 64 -35 100 -16 25 14 24 11 -5 -29 -14 -18 -30 -54 -36 -80 l-11 -47 -112
17 c-62 9 -164 24 -226 33 -142 19 -157 30 -113 81 38 42 56 76 71 130 l11 40
-25 -30 c-13 -16 -24 -32 -25 -35 -1 -16 -72 -44 -115 -46 -60 -3 -191 -47
-220 -74 -31 -30 -144 -29 -171 1 -30 34 -26 148 9 219 27 56 91 140 107 140
5 0 -11 -38 -35 -85 -48 -90 -58 -150 -29 -162 25 -9 60 33 80 99 26 86 84
172 141 208 64 41 83 39 44 -5 -37 -42 -70 -107 -99 -191 -22 -65 -20 -99 6
-109 31 -12 66 29 98 116 40 111 65 157 107 197 36 35 95 61 137 61 l25 0 -25
-17z m779 -204 c92 -28 108 -48 116 -144 9 -115 13 -129 51 -185 37 -53 43
-96 12 -91 -32 5 -19 -16 35 -60 30 -24 62 -54 72 -68 33 -42 30 -118 -10
-305 -21 -93 -44 -204 -51 -245 -8 -41 -31 -156 -50 -255 -20 -99 -42 -220
-50 -270 -8 -49 -23 -133 -34 -185 -27 -134 -49 -252 -65 -345 -8 -44 -28
-145 -45 -225 -34 -159 -43 -175 -127 -228 -24 -15 -43 -29 -43 -32 0 -3 18
-15 41 -28 37 -22 40 -26 33 -55 -17 -83 -103 -189 -160 -200 -10 -2 -44 -16
-74 -30 -78 -36 -136 -43 -205 -22 -75 21 -126 56 -153 103 -27 49 -46 168
-38 246 4 40 1 86 -9 131 -8 39 -15 85 -15 103 0 33 1 33 33 27 103 -21 361
-82 476 -112 92 -25 139 -33 149 -27 18 12 44 92 36 116 -2 9 -11 21 -18 27
-16 13 -341 101 -490 132 -132 28 -154 42 -140 90 10 33 12 34 55 31 55 -4
284 -58 449 -108 180 -53 168 -52 185 -10 18 43 19 86 2 109 -14 20 -215 80
-451 133 -89 21 -167 42 -174 47 -8 6 -12 25 -10 46 3 33 6 36 36 39 36 4 294
-58 479 -114 147 -44 150 -44 163 9 6 23 13 47 15 54 14 43 -66 74 -440 167
-192 48 -210 55 -213 75 -2 13 -1 34 3 48 6 24 9 25 52 18 73 -11 305 -71 461
-119 l143 -44 14 22 c8 11 17 40 21 62 5 34 2 46 -13 61 -21 21 -190 74 -447
139 -92 23 -173 47 -179 53 -7 7 -8 23 -1 48 9 37 10 38 52 36 50 -2 230 -51
449 -121 140 -45 154 -48 167 -33 20 22 31 93 18 118 -17 31 -298 124 -571
188 l-73 18 5 40 c3 21 10 44 15 49 14 14 269 -51 460 -118 87 -30 163 -56
171 -57 35 -5 57 116 26 146 -19 20 -294 111 -469 156 -151 39 -167 50 -150
98 7 20 17 29 37 31 39 5 161 -29 406 -110 239 -80 232 -80 245 3 7 43 -4 73
-33 88 -37 20 -328 114 -455 147 -71 18 -133 39 -138 46 -13 21 -9 44 10 68
l19 23 74 -18 c102 -25 283 -84 409 -134 57 -23 113 -41 124 -39 36 5 49 113
18 141 -38 35 -298 129 -506 182 l-108 29 5 42 c2 23 15 57 30 75 14 19 37 77
52 129 31 111 55 155 93 169 34 13 108 5 191 -21z m-983 -375 c-12 -43 -18
-93 -10 -93 91 -1 422 -42 503 -62 l43 -11 -5 -40 c-3 -22 -10 -44 -16 -50 -7
-7 -74 -2 -223 18 -285 37 -326 48 -368 98 -15 18 -18 18 -70 2 -30 -9 -63
-21 -72 -26 -10 -5 -54 -9 -98 -9 -77 0 -80 1 -86 26 -4 14 -1 37 5 50 11 25
13 25 125 23 63 -1 119 2 124 5 6 3 13 20 17 36 10 44 28 37 23 -9 -3 -33 0
-41 17 -45 32 -9 35 -7 35 19 0 35 27 85 46 85 10 0 14 -6 10 -17z m-62 -292
l-7 -58 89 -7 c106 -9 338 -40 412 -56 58 -13 59 -15 32 -86 -10 -25 -13 -26
-53 -20 -23 4 -131 18 -240 32 -108 13 -208 29 -221 34 -13 5 -37 25 -52 45
-21 28 -32 35 -48 30 -84 -25 -151 -38 -211 -39 l-69 -1 -9 32 c-18 63 -11 66
123 58 l119 -7 15 36 c16 39 54 53 42 16 -3 -11 -9 -29 -12 -40 -5 -16 -2 -20
20 -20 20 0 26 5 26 21 0 26 29 89 41 89 5 0 6 -26 3 -59z m-35 -250 c-4 -30
-7 -57 -5 -58 2 -2 91 -15 197 -29 223 -28 310 -42 328 -53 9 -6 10 -18 0 -55
-11 -45 -13 -46 -43 -41 -17 3 -134 19 -261 35 -251 33 -272 41 -288 99 -6 25
-12 32 -25 28 -98 -33 -173 -48 -221 -45 l-56 3 -3 44 -3 44 115 -6 116 -5 12
25 c17 34 34 30 30 -6 -2 -22 2 -30 19 -34 31 -8 39 -1 39 37 0 35 37 93 50
79 5 -4 4 -33 -1 -62z m-233 -246 c-49 -49 -79 -86 -83 -105 -5 -26 -10 -30
-37 -30 -46 0 -58 12 -63 64 l-6 46 70 0 70 0 46 50 c25 28 53 50 62 50 10 0
-14 -30 -59 -75z m203 51 c7 -8 22 -40 35 -73 26 -68 13 -63 231 -88 207 -24
235 -32 235 -60 0 -13 -4 -35 -10 -49 -12 -33 -16 -33 -263 0 l-198 27 -33
-32 c-37 -36 -74 -97 -64 -106 3 -3 91 -17 196 -30 104 -13 211 -29 238 -35
102 -21 94 -16 82 -53 -21 -63 -13 -62 -269 -27 -252 34 -317 46 -335 61 -8 7
-1 30 27 87 37 76 38 77 16 80 -34 6 -45 22 -15 22 36 0 84 43 98 86 12 35 11
45 -16 182 -3 16 0 22 15 22 10 0 24 -6 30 -14z m-123 -99 c-3 -12 -10 -46
-17 -75 -12 -57 -26 -63 -47 -19 -10 22 -10 32 2 61 21 49 74 78 62 33z m-107
-223 c5 -22 12 -47 16 -57 7 -16 4 -18 -28 -12 -28 5 -39 3 -56 -14 -16 -16
-28 -19 -58 -14 -50 8 -63 19 -63 56 l0 30 80 -6 80 -5 -6 56 c-5 55 -4 56 10
31 9 -15 19 -44 25 -65z m107 -201 c-16 -52 -23 -104 -15 -108 4 -3 91 -17
191 -30 101 -14 194 -27 208 -29 142 -27 141 -27 135 -49 -22 -77 -19 -77
-240 -47 -320 43 -365 55 -365 100 0 31 -29 38 -110 28 -132 -15 -140 -13
-140 39 l0 36 80 -7 c44 -3 86 -9 94 -12 10 -4 21 6 32 28 l18 33 6 -35 c7
-50 35 -52 45 -3 7 41 30 73 52 73 9 0 12 -7 9 -17z m-59 -285 c-7 -54 -18
-75 -36 -64 -26 16 -2 116 27 116 12 0 14 -10 9 -52z m-84 -41 c-4 -20 1 -25
34 -35 21 -6 79 -16 128 -22 203 -25 323 -41 377 -52 62 -11 61 -9 41 -80 -6
-25 -70 -24 -284 6 -230 32 -260 40 -300 82 -31 32 -37 34 -101 34 -39 0 -68
-4 -68 -10 0 -17 -29 -11 -50 10 -11 11 -20 33 -20 50 0 35 14 37 122 16 70
-13 88 -8 88 24 0 9 3 20 7 24 12 12 31 -22 26 -47z m39 -172 c3 -3 0 -33 -7
-65 -12 -58 -12 -60 9 -65 11 -2 82 -13 156 -25 74 -11 186 -30 247 -41 103
-19 112 -23 103 -39 -6 -10 -10 -28 -10 -38 0 -13 -10 -24 -29 -30 -47 -16
-59 -47 -72 -175 -9 -92 -9 -133 0 -186 13 -75 51 -164 83 -198 31 -33 9 -28
-34 7 -63 52 -85 115 -93 260 -5 99 -3 138 10 185 22 83 6 175 -30 175 -8 0
-30 -31 -50 -69 -19 -38 -39 -72 -45 -76 -15 -9 -60 22 -60 40 0 20 -16 19
-24 -1 -3 -9 -11 -58 -18 -110 -6 -52 -15 -94 -20 -94 -4 0 -8 -18 -8 -40 0
-40 74 -205 123 -274 19 -27 19 -28 1 -18 -10 6 -36 28 -56 49 -85 87 -110
216 -97 491 4 81 3 84 -24 107 -15 13 -43 29 -63 34 -20 6 -47 20 -60 32 -18
17 -46 24 -131 35 -131 17 -133 18 -133 45 0 17 4 20 23 16 12 -3 53 -11 91
-18 61 -12 69 -11 78 4 13 24 31 21 25 -3 -4 -16 1 -21 21 -26 15 -3 32 -7 38
-9 8 -2 10 9 7 36 -7 50 26 107 49 84z m-231 -252 c-28 -54 -36 -255 -15 -368
4 -23 3 -26 -5 -14 -27 42 -42 288 -21 346 6 15 18 34 27 41 22 16 25 15 14
-5z m-150 -171 c-8 -12 -10 3 -11 58 0 110 14 145 18 42 2 -45 -2 -90 -7 -100z
m312 71 c-4 -16 -8 -89 -8 -163 0 -123 3 -141 26 -197 28 -67 21 -76 -11 -14
-25 49 -44 197 -36 275 10 93 17 126 27 126 5 0 6 -12 2 -27z m394 -180 c-2
-21 -4 -6 -4 32 0 39 2 55 4 38 2 -18 2 -50 0 -70z m181 -563 c52 -10 96 -20
98 -23 5 -5 -25 -229 -31 -235 -2 -2 -8 13 -15 32 -15 47 -59 79 -140 104
l-65 20 -3 52 c-4 71 2 84 36 75 15 -4 69 -15 120 -25z m-115 -276 c6 -6 -85
-54 -101 -54 -3 0 3 10 14 21 27 31 72 47 87 33z m76 -134 c0 -34 -2 -40 -9
-25 -13 29 -13 104 0 85 5 -8 9 -35 9 -60z m-210 -190 c1 -72 0 -80 -17 -80
-38 0 -69 60 -53 101 11 30 50 71 60 65 4 -3 8 -41 10 -86z"/>
<path d="M4752 9108 c-15 -15 -16 -64 -1 -73 15 -10 17 -5 25 43 7 42 -1 53
-24 30z"/>
<path d="M7883 9004 c-15 -24 -15 -29 -2 -53 29 -51 99 -32 99 28 0 34 -17 51
-52 51 -19 0 -33 -8 -45 -26z"/>
<path d="M4527 9002 c-33 -37 -8 -92 41 -92 24 0 62 32 62 53 0 49 -70 75
-103 39z"/>
<path d="M4318 8888 c-30 -24 -31 -56 -4 -83 14 -14 32 -25 41 -25 21 0 55 36
55 60 0 25 -34 60 -58 60 -10 0 -25 -6 -34 -12z"/>
<path d="M8102 8888 c-31 -31 0 -98 46 -98 22 0 52 34 52 61 0 38 -70 65 -98
37z"/>
<path d="M8329 8766 c-48 -23 -28 -106 26 -106 29 0 55 30 55 62 0 41 -42 64
-81 44z"/>
<path d="M4108 8759 c-21 -12 -24 -69 -6 -87 22 -22 66 -14 85 14 15 24 15 29
2 53 -16 28 -53 38 -81 20z"/>
<path d="M3912 8614 c-42 -29 -17 -104 35 -104 22 0 53 38 53 64 0 24 -32 56
-55 56 -6 0 -21 -7 -33 -16z"/>
<path d="M8510 8610 c-25 -25 -25 -52 -1 -74 44 -40 115 8 89 58 -22 41 -57
47 -88 16z"/>
<path d="M3721 8446 c-17 -18 -22 -32 -17 -50 13 -52 72 -57 103 -10 15 24 15
27 -4 52 -27 36 -54 38 -82 8z"/>
<path d="M8696 8451 c-25 -27 -17 -72 15 -90 24 -13 29 -13 53 2 34 22 36 69
4 91 -30 21 -51 20 -72 -3z"/>
<path d="M3547 8272 c-33 -36 -13 -92 32 -92 51 0 80 60 45 94 -21 21 -57 20
-77 -2z"/>
<path d="M8876 8274 c-21 -21 -20 -57 2 -77 50 -46 114 13 82 74 -13 23 -62
26 -84 3z"/>
<path d="M9063 8100 c-49 -20 -32 -110 21 -110 50 0 73 63 36 100 -22 22 -25
23 -57 10z"/>
<path d="M3375 8076 c-23 -35 -13 -74 22 -82 50 -13 87 30 63 74 -22 38 -63
42 -85 8z"/>
<path d="M3232 7887 c-28 -30 -28 -62 0 -81 29 -21 51 -20 71 2 24 26 21 68
-5 86 -30 21 -41 20 -66 -7z"/>
<path d="M9201 7886 c-17 -18 -22 -32 -17 -50 13 -52 79 -60 105 -14 14 25 14
29 -5 55 -27 37 -54 40 -83 9z"/>
<path d="M3110 7693 c-65 -22 -41 -126 25 -109 31 8 54 50 39 73 -15 24 -47
41 -64 36z"/>
<path d="M9357 7682 c-41 -45 3 -118 55 -91 43 23 50 57 18 89 -25 25 -52 26
-73 2z"/>
<path d="M2967 7467 c-29 -20 -26 -66 5 -90 25 -19 28 -19 52 -3 20 12 26 25
26 51 0 48 -44 71 -83 42z"/>
<path d="M9476 7464 c-9 -8 -16 -26 -16 -39 0 -13 7 -31 16 -39 33 -34 94 -9
94 38 0 47 -62 73 -94 40z"/>
<path d="M9587 7242 c-22 -24 -21 -65 1 -85 25 -22 48 -21 72 3 27 27 26 65
-2 84 -29 21 -51 20 -71 -2z"/>
<path d="M2852 7238 c-7 -7 -12 -27 -12 -45 0 -26 6 -36 25 -45 55 -25 109 39
70 82 -20 22 -65 26 -83 8z"/>
<path d="M2767 7009 c-50 -29 -31 -108 26 -109 22 0 57 35 57 58 0 40 -49 70
-83 51z"/>
<path d="M9692 7004 c-41 -28 -18 -104 31 -104 22 0 57 35 57 58 0 44 -52 72
-88 46z"/>
<path d="M2670 6760 c-11 -11 -20 -29 -20 -40 0 -25 34 -60 58 -60 48 0 70 76
30 104 -30 21 -44 20 -68 -4z"/>
<path d="M9783 6770 c-44 -18 -38 -91 7 -105 56 -18 96 66 48 99 -25 18 -25
18 -55 6z"/>
<path d="M842 6524 c-28 -19 -29 -57 -2 -84 24 -24 38 -25 68 -4 14 10 22 26
22 44 0 28 -30 60 -55 60 -6 0 -21 -7 -33 -16z"/>
<path d="M1085 6515 c-14 -13 -25 -29 -25 -35 0 -16 47 -60 65 -60 23 0 55 37
55 64 0 25 -32 56 -58 56 -7 0 -24 -11 -37 -25z"/>
<path d="M1331 6514 c-27 -34 -26 -40 4 -69 29 -30 35 -31 69 -4 31 24 33 52
6 79 -27 27 -55 25 -79 -6z"/>
<path d="M1580 6520 c-32 -32 -25 -66 18 -89 35 -18 81 11 82 52 0 23 -35 57
-60 57 -11 0 -29 -9 -40 -20z"/>
<path d="M1842 6524 c-51 -35 -2 -120 52 -92 41 22 47 57 16 88 -24 24 -38 25
-68 4z"/>
<path d="M2092 6524 c-51 -35 -8 -117 50 -95 42 16 50 59 18 91 -24 24 -38 25
-68 4z"/>
<path d="M2337 6522 c-41 -45 3 -118 55 -91 43 23 50 57 18 89 -25 25 -52 26
-73 2z"/>
<path d="M2587 6522 c-41 -45 0 -114 55 -93 42 16 50 59 18 91 -25 25 -52 26
-73 2z"/>
<path d="M9850 6520 c-23 -23 -24 -33 -10 -60 16 -30 46 -43 70 -30 31 17 43
46 29 73 -23 42 -57 49 -89 17z"/>
<path d="M10102 6524 c-32 -22 -30 -69 4 -91 24 -15 29 -15 53 -2 36 20 41 71
9 93 -28 20 -38 20 -66 0z"/>
<path d="M10350 6520 c-11 -11 -20 -29 -20 -40 0 -22 33 -60 53 -60 27 0 57
31 57 60 0 18 -8 34 -22 44 -30 21 -44 20 -68 -4z"/>
<path d="M10602 6524 c-58 -40 5 -128 64 -89 29 19 32 65 6 88 -23 21 -41 21
-70 1z"/>
<path d="M10862 6524 c-51 -35 -2 -120 52 -92 41 22 47 57 16 88 -24 24 -38
25 -68 4z"/>
<path d="M11112 6524 c-42 -29 -17 -104 35 -104 22 0 53 38 53 64 0 24 -32 56
-55 56 -6 0 -21 -7 -33 -16z"/>
<path d="M11362 6524 c-42 -29 -17 -104 35 -104 20 0 53 38 53 60 0 22 -33 60
-53 60 -7 0 -23 -7 -35 -16z"/>
<path d="M11601 6481 c-22 -14 -5 -60 25 -67 20 -5 32 -1 51 19 35 34 25 57
-24 57 -21 0 -44 -4 -52 -9z"/>
<path d="M797 6282 c-47 -52 28 -126 77 -76 19 18 21 65 4 82 -18 18 -63 14
-81 -6z"/>
<path d="M11667 6192 c-10 -10 -17 -28 -17 -40 0 -25 33 -62 55 -62 23 0 55
37 55 63 0 49 -61 74 -93 39z"/>
<path d="M800 6030 c-32 -32 -24 -75 18 -91 58 -22 101 60 50 95 -30 21 -44
20 -68 -4z"/>
<path d="M8497 5979 l-34 -42 -97 22 c-55 12 -109 18 -124 15 -42 -10 -81 -42
-101 -82 -36 -72 -35 -76 15 -117 l46 -38 38 44 38 44 86 -28 c97 -32 129 -30
177 10 29 24 69 90 69 113 0 13 -62 99 -72 100 -3 0 -22 -19 -41 -41z"/>
<path d="M11666 5931 c-24 -26 -17 -62 15 -80 24 -13 29 -13 53 2 27 18 33 45
16 78 -14 25 -61 25 -84 0z"/>
<path d="M800 5780 c-11 -11 -20 -26 -20 -33 0 -24 31 -57 55 -57 50 0 73 60
37 93 -25 22 -48 21 -72 -3z"/>
<path d="M11670 5680 c-11 -11 -20 -29 -20 -40 0 -22 33 -60 53 -60 49 0 75
70 39 103 -25 22 -48 21 -72 -3z"/>
<path d="M10438 5683 l-118 -4 -2 -221 -3 -222 -118 222 -119 222 -138 0 -139
0 2 -419 2 -420 110 3 110 3 -3 221 c-1 121 1 223 6 225 4 3 54 -83 110 -191
56 -108 111 -211 121 -228 l19 -31 135 3 136 4 4 420 c2 231 4 419 3 418 -1
-1 -54 -4 -118 -5z"/>
<path d="M1063 5673 c3 -5 53 -183 111 -398 59 -214 111 -400 116 -412 9 -22
12 -22 162 -20 l152 3 42 139 c39 129 152 500 194 638 l18 57 -128 0 -129 0
-11 -57 c-14 -71 -96 -406 -116 -474 -8 -27 -19 -49 -24 -49 -6 0 -10 3 -10 7
0 4 -22 118 -49 253 -28 135 -53 262 -56 283 l-6 37 -135 0 c-74 0 -133 -3
-131 -7z"/>
<path d="M1974 5262 l1 -417 125 -3 125 -4 1 345 c1 189 5 378 9 420 l7 77
-135 0 -135 0 2 -418z"/>
<path d="M2374 5653 c4 -16 49 -185 101 -378 52 -192 97 -363 101 -380 12 -53
14 -54 177 -52 l151 2 82 270 c45 149 102 335 127 415 l45 145 -125 3 c-69 1
-128 0 -131 -2 -2 -3 -13 -45 -23 -93 -17 -83 -82 -356 -109 -452 -6 -25 -15
-40 -20 -35 -9 9 -101 441 -114 537 l-7 47 -131 0 -130 0 6 -27z"/>
<path d="M3421 5588 c-49 -152 -210 -681 -217 -713 l-6 -31 124 3 123 2 14 71
13 70 118 0 118 0 7 -52 c13 -93 5 -88 148 -93 91 -3 127 -1 127 7 0 6 -49
193 -110 415 -60 222 -110 406 -110 409 0 2 -72 4 -159 4 l-159 0 -31 -92z
m235 -365 l6 -43 -66 0 c-58 0 -66 2 -66 19 0 19 58 229 68 246 6 10 45 -139
58 -222z"/>
<path d="M4342 5262 l2 -418 246 0 c165 0 247 3 252 10 4 6 8 55 8 109 l0 97
-125 0 c-149 0 -146 -2 -140 121 3 46 7 177 10 292 l5 207 -130 0 -130 0 2
-418z"/>
<path d="M5155 5668 c-8 -24 -163 -532 -199 -653 -55 -183 -63 -166 79 -168
l120 -2 14 73 14 72 117 0 118 0 13 -72 14 -73 123 1 c68 1 125 4 128 7 5 4
-59 245 -204 770 l-16 57 -158 0 c-118 0 -160 -3 -163 -12z m184 -319 c12 -50
24 -108 27 -130 l7 -39 -67 0 c-42 0 -66 4 -66 11 0 25 64 249 71 249 4 0 17
-41 28 -91z"/>
<path d="M6086 5633 c-14 -110 -76 -735 -76 -771 0 -15 11 -17 108 -14 l108 3
13 222 c11 201 21 267 35 226 9 -25 93 -303 102 -339 l10 -35 95 -3 96 -3 52
148 c76 218 85 243 93 243 10 0 19 -102 26 -294 l7 -170 108 -1 c59 -1 109 1
111 4 2 3 -9 148 -24 321 -15 173 -31 359 -35 413 l-7 97 -144 0 c-79 0 -144
-2 -144 -3 0 -4 -57 -199 -101 -351 -14 -48 -24 -65 -29 -55 -7 12 -75 282
-95 377 l-7 32 -148 0 -147 0 -7 -47z"/>
<path d="M7317 5673 c-12 -19 -242 -764 -249 -806 -3 -17 7 -18 115 -18 66 0
121 2 125 5 3 4 11 34 17 69 l11 62 117 3 c132 3 118 13 135 -93 l7 -50 128
-2 c69 -1 128 1 131 5 2 4 -29 126 -68 272 -40 146 -90 331 -112 412 l-39 148
-157 0 c-86 0 -159 -3 -161 -7z m186 -358 c15 -66 27 -123 27 -127 0 -5 -31
-8 -70 -8 -38 0 -70 3 -70 8 0 7 26 104 56 211 8 29 19 50 23 45 4 -5 20 -63
34 -129z"/>
<path d="M7993 5263 l2 -418 114 -2 114 -2 -5 167 c-2 92 -2 196 1 232 l6 65
114 -220 c62 -121 118 -224 123 -230 5 -5 68 -10 143 -10 l135 0 0 251 c0 138
3 326 7 417 l6 167 -121 0 -122 0 0 -222 0 -223 -26 45 c-14 25 -66 125 -116
223 l-89 177 -144 0 -144 0 2 -417z"/>
<path d="M9115 5668 c-21 -60 -245 -806 -245 -816 0 -9 31 -11 123 -7 l122 5
13 57 c8 32 15 64 18 71 2 9 35 12 117 12 l114 0 14 -72 14 -73 128 -1 c80 0
127 3 127 9 0 6 -49 192 -110 414 -60 221 -110 405 -110 408 0 3 -72 5 -160 5
-120 0 -162 -3 -165 -12z m193 -350 c16 -68 27 -126 25 -130 -7 -13 -133 -9
-133 4 0 26 63 248 70 248 5 0 22 -55 38 -122z"/>
<path d="M10925 5668 c-14 -41 -235 -768 -240 -789 -6 -26 -6 -26 74 -33 44
-4 100 -4 125 -1 l45 7 11 69 12 69 118 0 117 0 14 -72 14 -72 128 -1 129 -1
-5 25 c-2 15 -46 177 -97 361 -51 184 -100 361 -108 393 l-16 57 -158 0 c-118
0 -160 -3 -163 -12z m192 -350 c16 -68 28 -126 26 -130 -2 -5 -33 -8 -69 -8
-53 0 -64 3 -64 17 0 27 63 243 71 243 4 0 20 -55 36 -122z"/>
<path d="M796 5538 c-21 -29 -20 -51 2 -71 37 -33 92 -11 92 37 0 51 -66 74
-94 34z"/>
<path d="M11667 5422 c-35 -39 -13 -92 38 -92 52 0 75 59 37 93 -24 22 -55 21
-75 -1z"/>
<path d="M795 5300 c-41 -46 29 -116 75 -75 24 22 26 58 4 79 -21 22 -57 20
-79 -4z"/>
<path d="M11664 5154 c-26 -39 -9 -78 36 -82 55 -6 82 55 42 91 -27 25 -59 21
-78 -9z"/>
<path d="M800 5060 c-11 -11 -20 -29 -20 -39 0 -25 46 -62 68 -54 42 15 55 68
24 96 -25 22 -48 21 -72 -3z"/>
<path d="M11670 4900 c-11 -11 -20 -29 -20 -40 0 -23 33 -60 55 -60 23 0 55
37 55 64 0 25 -32 56 -57 56 -7 0 -22 -9 -33 -20z"/>
<path d="M797 4812 c-22 -24 -21 -55 1 -75 37 -34 92 -11 92 38 0 50 -60 73
-93 37z"/>
<path d="M11667 4642 c-22 -24 -21 -55 1 -75 36 -33 92 -8 92 41 0 47 -61 69
-93 34z"/>
<path d="M813 4570 c-44 -18 -38 -91 7 -105 56 -18 96 66 48 99 -25 18 -25 18
-55 6z"/>
<path d="M11660 4381 c-15 -29 -12 -56 8 -74 50 -46 114 13 82 74 -7 13 -21
19 -45 19 -24 0 -38 -6 -45 -19z"/>
<path d="M796 4298 c-21 -29 -20 -51 2 -71 37 -34 92 -11 92 38 0 52 -65 74
-94 33z"/>
<path d="M11670 4130 c-27 -27 -26 -65 2 -84 29 -21 51 -20 71 2 24 26 21 68
-5 86 -30 21 -44 20 -68 -4z"/>
<path d="M795 4040 c-41 -46 29 -116 75 -75 22 20 27 64 8 83 -19 19 -63 14
-83 -8z"/>
<path d="M934 3935 c-9 -14 -13 -32 -9 -45 15 -47 86 -50 107 -5 27 59 -62
105 -98 50z"/>
<path d="M1187 3942 c-47 -52 28 -126 77 -76 19 18 21 65 4 82 -18 18 -63 14
-81 -6z"/>
<path d="M1432 3948 c-23 -28 -18 -74 9 -88 52 -29 107 26 75 75 -18 27 -66
35 -84 13z"/>
<path d="M1674 3935 c-29 -45 6 -95 59 -81 13 3 28 16 34 29 28 61 -57 108
-93 52z"/>
<path d="M1924 3935 c-13 -21 -15 -31 -6 -50 21 -45 93 -42 105 4 15 59 -65
97 -99 46z"/>
<path d="M2176 3944 c-21 -21 -20 -57 2 -77 24 -22 55 -21 75 1 34 37 11 92
-38 92 -13 0 -31 -7 -39 -16z"/>
<path d="M2424 3935 c-9 -14 -13 -32 -9 -45 15 -47 86 -50 107 -5 27 59 -62
105 -98 50z"/>
<path d="M2686 3944 c-34 -33 -9 -94 38 -94 28 0 56 29 56 57 0 44 -63 69 -94
37z"/>
<path d="M2937 3942 c-22 -24 -21 -55 1 -75 50 -46 114 13 82 74 -14 25 -61
25 -83 1z"/>
<path d="M9487 3942 c-22 -24 -21 -55 1 -75 36 -33 92 -8 92 41 0 47 -61 69
-93 34z"/>
<path d="M9737 3942 c-22 -24 -21 -55 1 -75 37 -34 92 -11 92 38 0 50 -60 73
-93 37z"/>
<path d="M9990 3945 c-30 -36 -4 -95 42 -95 23 0 58 35 58 58 0 43 -73 70
-100 37z"/>
<path d="M10247 3942 c-46 -50 13 -114 74 -82 22 12 27 68 7 88 -18 18 -63 14
-81 -6z"/>
<path d="M10508 3949 c-25 -14 -24 -75 1 -89 29 -15 56 -12 74 8 46 50 -16
116 -75 81z"/>
<path d="M10757 3942 c-47 -52 21 -120 77 -79 21 16 24 60 6 82 -17 21 -63 19
-83 -3z"/>
<path d="M11013 3934 c-15 -24 -15 -29 -2 -53 27 -49 102 -33 102 22 0 59 -67
80 -100 31z"/>
<path d="M11278 3949 c-12 -6 -18 -22 -18 -45 0 -27 5 -37 26 -46 55 -25 108
39 68 83 -19 21 -49 24 -76 8z"/>
<path d="M11526 3944 c-33 -33 -7 -94 41 -94 25 0 53 30 53 57 0 44 -63 69
-94 37z"/>
<path d="M4353 3913 l-151 -4 3 -327 4 -327 96 -3 95 -3 0 116 0 115 94 0 94
0 6 31 c3 17 6 53 6 80 l0 49 -100 0 -100 0 0 48 c0 74 2 75 131 71 l114 -4 9
73 c4 40 6 76 3 78 -8 8 -138 11 -304 7z"/>
<path d="M4833 3912 l-102 -3 2 -329 2 -330 227 0 c126 0 229 4 232 9 4 5 9
44 13 86 l6 76 -141 -7 -141 -7 -6 36 c-12 64 -8 67 108 67 l104 0 7 71 c4 39
4 74 1 77 -4 4 -53 7 -108 7 l-102 0 -3 49 -3 48 138 -3 138 -4 7 74 c4 41 6
76 4 78 -5 6 -255 9 -383 5z"/>
<path d="M5368 3913 l-47 -4 5 -327 4 -327 178 0 178 0 69 35 c82 41 126 93
152 178 19 67 22 199 5 259 -19 65 -70 124 -136 157 -56 29 -63 30 -209 32
-84 1 -173 0 -199 -3z m300 -173 c28 -26 42 -80 42 -160 0 -127 -34 -180 -116
-180 -77 0 -74 -8 -74 186 l0 174 63 0 c49 0 68 -4 85 -20z"/>
<path d="M6763 3913 l-131 -4 1 -329 2 -330 98 0 97 0 0 100 0 100 30 0 c17 0
33 0 38 1 4 1 22 -36 40 -82 42 -105 54 -119 105 -119 35 0 150 25 169 37 5 2
-26 54 -67 115 l-75 110 40 39 c73 71 89 198 35 280 -47 73 -124 89 -382 82z
m179 -160 c12 -11 18 -30 18 -60 0 -60 -34 -96 -88 -91 l-37 3 -3 83 -3 82 47
0 c30 0 54 -6 66 -17z"/>
<path d="M7460 3900 c-11 -20 -200 -626 -200 -641 0 -6 37 -9 98 -7 l97 3 11
55 10 55 96 3 96 3 8 -58 9 -58 94 -3 c52 -1 98 1 103 6 7 7 -152 609 -169
640 -6 10 -40 14 -126 16 -101 2 -120 0 -127 -14z m149 -268 c12 -50 21 -96
21 -102 0 -5 -25 -10 -55 -10 -30 0 -55 3 -55 6 0 9 52 188 57 197 8 14 11 5
32 -91z"/>
<path d="M7995 3912 c-1 -1 0 -150 2 -330 l5 -327 196 0 197 0 3 82 3 82 -103
3 -103 3 3 243 4 242 -44 2 c-65 3 -159 3 -163 0z"/>
<path d="M6045 3583 l4 -328 229 -3 230 -2 6 22 c3 13 6 51 6 86 l0 62 -140
-6 -140 -7 0 51 0 52 104 0 105 0 6 53 c4 29 5 64 3 78 -3 24 -4 24 -106 21
-115 -4 -120 -1 -107 64 l6 37 134 -5 133 -4 6 44 c3 25 6 60 6 78 l0 34 -244
0 -244 0 3 -327z"/>
<path d="M3070 3720 c-27 -27 -25 -55 6 -79 34 -27 40 -26 70 4 18 19 23 31
19 48 -15 47 -61 61 -95 27z"/>
<path d="M9351 3714 c-27 -34 -26 -40 4 -69 29 -30 35 -31 69 -4 31 24 33 52
6 79 -27 27 -55 25 -79 -6z"/>
<path d="M3207 3512 c-36 -40 -5 -97 49 -90 40 4 58 42 38 80 -17 33 -61 38
-87 10z"/>
<path d="M9210 3510 c-25 -25 -26 -52 -2 -73 37 -34 92 -11 92 38 0 51 -54 71
-90 35z"/>
<path d="M3367 3312 c-33 -36 -8 -92 40 -92 25 0 53 30 53 57 0 46 -62 69 -93
35z"/>
<path d="M9053 3304 c-15 -24 -15 -29 -2 -53 28 -51 99 -35 99 22 0 40 -15 57
-52 57 -19 0 -33 -8 -45 -26z"/>
<path d="M3527 3122 c-24 -27 -21 -58 9 -81 30 -24 63 -16 81 19 28 56 -48
108 -90 62z"/>
<path d="M8897 3122 c-43 -47 8 -116 64 -89 31 16 39 75 13 94 -25 18 -58 16
-77 -5z"/>
<path d="M3700 2950 c-11 -11 -20 -29 -20 -40 0 -21 33 -60 51 -60 41 0 76 49
58 83 -23 42 -57 49 -89 17z"/>
<path d="M8722 2944 c-28 -19 -29 -57 -2 -84 24 -24 38 -25 68 -4 27 19 29 64
4 87 -23 21 -41 21 -70 1z"/>
<path d="M3882 2788 c-31 -31 0 -98 46 -98 22 0 52 34 52 61 0 38 -70 65 -98
37z"/>
<path d="M8532 2784 c-41 -28 -18 -104 31 -104 23 0 57 36 57 60 0 22 -33 60
-53 60 -7 0 -23 -7 -35 -16z"/>
<path d="M4347 2759 c-9 -6 -22 -19 -28 -30 -24 -45 52 -94 89 -57 39 39 -14
113 -61 87z"/>
<path d="M4562 2754 c-24 -17 -30 -62 -10 -82 7 -7 27 -12 45 -12 65 0 72 85
8 104 -12 3 -30 -1 -43 -10z"/>
<path d="M4782 2754 c-24 -17 -30 -62 -10 -82 20 -20 66 -14 82 11 20 29 11
62 -20 76 -30 14 -25 14 -52 -5z"/>
<path d="M5232 2759 c-26 -10 -38 -50 -22 -78 17 -32 77 -29 92 4 22 49 -19
93 -70 74z"/>
<path d="M6108 2756 c-26 -13 -36 -59 -17 -82 19 -23 66 -17 84 10 13 19 13
29 4 49 -14 30 -39 39 -71 23z"/>
<path d="M6979 2757 c-27 -14 -38 -60 -18 -83 34 -41 115 8 89 55 -16 32 -42
42 -71 28z"/>
<path d="M7405 2746 c-25 -25 -25 -44 -2 -73 12 -16 59 -17 75 -1 20 20 14 65
-10 82 -30 21 -35 20 -63 -8z"/>
<path d="M7632 2754 c-24 -17 -30 -62 -10 -82 29 -29 98 -1 98 39 0 42 -53 68
-88 43z"/>
<path d="M8072 2754 c-24 -17 -30 -62 -10 -82 29 -29 98 -1 98 39 0 42 -53 68
-88 43z"/>
<path d="M4992 2748 c-7 -7 -12 -24 -12 -38 0 -35 17 -50 57 -50 42 0 63 35
45 75 -9 19 -19 25 -45 25 -18 0 -38 -5 -45 -12z"/>
<path d="M5428 2735 c-18 -41 3 -75 47 -75 28 0 38 5 47 25 18 41 -3 75 -47
75 -28 0 -38 -5 -47 -25z"/>
<path d="M5663 2748 c-31 -40 -12 -88 36 -88 34 0 51 17 51 50 0 14 -5 31 -12
38 -16 16 -63 15 -75 0z"/>
<path d="M5868 2735 c-18 -41 3 -75 47 -75 28 0 38 5 47 25 18 41 -3 75 -47
75 -28 0 -38 -5 -47 -25z"/>
<path d="M6305 2736 c-24 -36 -3 -76 40 -76 38 0 55 16 55 50 0 34 -17 50 -52
50 -18 0 -33 -8 -43 -24z"/>
<path d="M6524 2735 c-15 -23 -15 -27 0 -50 11 -17 26 -25 44 -25 35 0 52 16
52 50 0 34 -17 50 -52 50 -18 0 -33 -8 -44 -25z"/>
<path d="M6740 2739 c-24 -44 14 -94 61 -82 27 7 42 45 30 76 -9 22 -17 27
-45 27 -26 0 -38 -6 -46 -21z"/>
<path d="M7178 2735 c-18 -41 3 -75 47 -75 28 0 38 5 47 25 18 41 -3 75 -47
75 -28 0 -38 -5 -47 -25z"/>
<path d="M7834 2735 c-15 -23 -15 -27 0 -50 11 -17 26 -25 44 -25 35 0 52 16
52 50 0 34 -17 50 -52 50 -18 0 -33 -8 -44 -25z"/>
<path d="M4092 2644 c-42 -29 -17 -104 35 -104 20 0 53 38 53 60 0 22 -33 60
-53 60 -7 0 -23 -7 -35 -16z"/>
<path d="M8327 2632 c-21 -23 -21 -41 -1 -70 18 -26 56 -29 78 -6 19 18 21 65
4 82 -18 18 -63 14 -81 -6z"/>
<path d="M4313 2510 c-44 -18 -38 -91 7 -105 56 -18 96 66 48 99 -25 18 -25
18 -55 6z"/>
<path d="M8126 2499 c-30 -23 -33 -45 -10 -77 18 -27 55 -29 77 -4 48 53 -12
124 -67 81z"/>
<path d="M4512 2378 c-30 -30 -1 -98 41 -98 23 0 57 36 57 59 0 42 -68 69 -98
39z"/>
<path d="M7894 2365 c-14 -21 -15 -31 -6 -51 7 -13 19 -27 27 -30 27 -11 65 6
76 33 23 61 -61 103 -97 48z"/>
<path d="M7683 2280 c-44 -18 -38 -91 7 -105 56 -18 96 66 48 99 -25 18 -25
18 -55 6z"/>
<path d="M4742 2268 c-20 -20 -15 -76 7 -88 29 -15 49 -12 71 10 24 24 26 53
4 74 -18 19 -65 21 -82 4z"/>
<path d="M4976 2174 c-21 -21 -20 -57 2 -77 50 -46 114 13 82 74 -13 23 -62
26 -84 3z"/>
<path d="M7436 2168 c-21 -30 -20 -44 4 -68 24 -24 53 -26 74 -4 19 18 21 65
4 82 -20 20 -65 14 -82 -10z"/>
<path d="M5217 2102 c-21 -23 -22 -66 -2 -82 22 -18 66 -15 82 6 42 57 -33
128 -80 76z"/>
<path d="M7207 2102 c-20 -22 -22 -63 -5 -80 18 -18 63 -14 81 6 21 23 21 41
1 70 -18 27 -55 29 -77 4z"/>
<path d="M5456 2044 c-19 -18 -21 -65 -4 -82 18 -18 63 -14 81 6 22 25 21 48
-3 72 -24 24 -53 26 -74 4z"/>
<path d="M6966 2047 c-21 -15 -25 -60 -6 -82 20 -24 67 -19 86 9 33 52 -30
110 -80 73z"/>
<path d="M5707 2002 c-33 -36 -10 -102 36 -102 23 0 57 36 57 60 0 25 -34 60
-58 60 -11 0 -26 -8 -35 -18z"/>
<path d="M6712 1998 c-18 -18 -14 -63 8 -83 43 -39 107 15 82 70 -9 19 -19 25
-45 25 -18 0 -38 -5 -45 -12z"/>
<path d="M5943 1964 c-15 -24 -15 -29 -2 -53 17 -31 68 -41 89 -16 16 19 16
60 0 80 -20 25 -67 19 -87 -11z"/>
<path d="M6467 1972 c-33 -37 -11 -92 37 -92 48 0 73 62 38 93 -24 22 -55 21
-75 -1z"/>
<path d="M6194 1955 c-22 -33 -6 -72 32 -81 33 -8 56 5 68 39 21 58 -66 94
-100 42z"/>
</g>
</svg>
